<mxfile host="app.diagrams.net" modified="2024-04-17T15:36:30.874Z" agent="Mozilla/5.0 (Windows NT 10.0; Win64; x64) AppleWebKit/537.36 (KHTML, like Gecko) Chrome/123.0.0.0 Safari/537.36" etag="BZprEynfXgqlhx2VNzus" version="24.2.5" type="device">
  <diagram name="Page-1" id="e5P0mwS1AretYM7_nfTY">
    <mxGraphModel dx="2537" dy="962" grid="1" gridSize="10" guides="1" tooltips="1" connect="1" arrows="1" fold="1" page="1" pageScale="1" pageWidth="850" pageHeight="1100" math="0" shadow="0">
      <root>
        <mxCell id="0" />
        <mxCell id="1" parent="0" />
        <mxCell id="xzZsynwT2GMZLObQLCWg-26" value="" style="edgeStyle=orthogonalEdgeStyle;rounded=0;orthogonalLoop=1;jettySize=auto;html=1;exitX=0.5;exitY=0;exitDx=0;exitDy=0;entryX=0.503;entryY=0.989;entryDx=0;entryDy=0;entryPerimeter=0;" parent="1" source="xzZsynwT2GMZLObQLCWg-16" target="xzZsynwT2GMZLObQLCWg-14" edge="1">
          <mxGeometry relative="1" as="geometry">
            <mxPoint x="425" y="360" as="targetPoint" />
          </mxGeometry>
        </mxCell>
        <mxCell id="xzZsynwT2GMZLObQLCWg-1" value="SudokuGame" style="swimlane;fontStyle=0;childLayout=stackLayout;horizontal=1;startSize=30;horizontalStack=0;resizeParent=1;resizeParentMax=0;resizeLast=0;collapsible=1;marginBottom=0;whiteSpace=wrap;html=1;align=center;verticalAlign=top;" parent="1" vertex="1">
          <mxGeometry x="310" y="350" width="210" height="300" as="geometry">
            <mxRectangle x="280" y="50" width="60" height="30" as="alternateBounds" />
          </mxGeometry>
        </mxCell>
        <mxCell id="xzZsynwT2GMZLObQLCWg-2" value="- board: SudokuBoard" style="text;strokeColor=default;fillColor=none;align=left;verticalAlign=middle;spacingLeft=4;spacingRight=4;overflow=hidden;points=[[0,0.5],[1,0.5]];portConstraint=eastwest;rotatable=0;whiteSpace=wrap;html=1;" parent="xzZsynwT2GMZLObQLCWg-1" vertex="1">
          <mxGeometry y="30" width="210" height="30" as="geometry" />
        </mxCell>
        <mxCell id="xzZsynwT2GMZLObQLCWg-3" value="+ initialize(): void" style="text;strokeColor=none;fillColor=none;align=left;verticalAlign=middle;spacingLeft=4;spacingRight=4;overflow=hidden;points=[[0,0.5],[1,0.5]];portConstraint=eastwest;rotatable=0;whiteSpace=wrap;html=1;" parent="xzZsynwT2GMZLObQLCWg-1" vertex="1">
          <mxGeometry y="60" width="210" height="30" as="geometry" />
        </mxCell>
        <mxCell id="xzZsynwT2GMZLObQLCWg-4" value="+ printBoard(): void" style="text;strokeColor=none;fillColor=none;align=left;verticalAlign=middle;spacingLeft=4;spacingRight=4;overflow=hidden;points=[[0,0.5],[1,0.5]];portConstraint=eastwest;rotatable=0;whiteSpace=wrap;html=1;" parent="xzZsynwT2GMZLObQLCWg-1" vertex="1">
          <mxGeometry y="90" width="210" height="30" as="geometry" />
        </mxCell>
        <mxCell id="xzZsynwT2GMZLObQLCWg-9" value="+ insertNumber(row: int, col: int, num: int): bool" style="text;strokeColor=none;fillColor=none;align=left;verticalAlign=middle;spacingLeft=4;spacingRight=4;overflow=hidden;points=[[0,0.5],[1,0.5]];portConstraint=eastwest;rotatable=0;whiteSpace=wrap;html=1;" parent="xzZsynwT2GMZLObQLCWg-1" vertex="1">
          <mxGeometry y="120" width="210" height="30" as="geometry" />
        </mxCell>
        <mxCell id="xzZsynwT2GMZLObQLCWg-10" value="+ removeNumber(row: int, col: int): bool" style="text;strokeColor=none;fillColor=none;align=left;verticalAlign=middle;spacingLeft=4;spacingRight=4;overflow=hidden;points=[[0,0.5],[1,0.5]];portConstraint=eastwest;rotatable=0;whiteSpace=wrap;html=1;" parent="xzZsynwT2GMZLObQLCWg-1" vertex="1">
          <mxGeometry y="150" width="210" height="30" as="geometry" />
        </mxCell>
        <mxCell id="xzZsynwT2GMZLObQLCWg-11" value="+ isMoveValid(row: int, col: int, num: int): bool" style="text;strokeColor=none;fillColor=none;align=left;verticalAlign=middle;spacingLeft=4;spacingRight=4;overflow=hidden;points=[[0,0.5],[1,0.5]];portConstraint=eastwest;rotatable=0;whiteSpace=wrap;html=1;" parent="xzZsynwT2GMZLObQLCWg-1" vertex="1">
          <mxGeometry y="180" width="210" height="30" as="geometry" />
        </mxCell>
        <mxCell id="xzZsynwT2GMZLObQLCWg-12" value="+ isGameOver(): bool" style="text;strokeColor=none;fillColor=none;align=left;verticalAlign=middle;spacingLeft=4;spacingRight=4;overflow=hidden;points=[[0,0.5],[1,0.5]];portConstraint=eastwest;rotatable=0;whiteSpace=wrap;html=1;" parent="xzZsynwT2GMZLObQLCWg-1" vertex="1">
          <mxGeometry y="210" width="210" height="30" as="geometry" />
        </mxCell>
        <mxCell id="xzZsynwT2GMZLObQLCWg-13" value="+ resetGame(): void  " style="text;strokeColor=none;fillColor=none;align=left;verticalAlign=middle;spacingLeft=4;spacingRight=4;overflow=hidden;points=[[0,0.5],[1,0.5]];portConstraint=eastwest;rotatable=0;whiteSpace=wrap;html=1;" parent="xzZsynwT2GMZLObQLCWg-1" vertex="1">
          <mxGeometry y="240" width="210" height="30" as="geometry" />
        </mxCell>
        <mxCell id="xzZsynwT2GMZLObQLCWg-14" value="+ getBoard(): const SudokuBoard&amp;amp;    " style="text;strokeColor=none;fillColor=none;align=left;verticalAlign=middle;spacingLeft=4;spacingRight=4;overflow=hidden;points=[[0,0.5],[1,0.5]];portConstraint=eastwest;rotatable=0;whiteSpace=wrap;html=1;" parent="xzZsynwT2GMZLObQLCWg-1" vertex="1">
          <mxGeometry y="270" width="210" height="30" as="geometry" />
        </mxCell>
        <mxCell id="xzZsynwT2GMZLObQLCWg-37" value="" style="edgeStyle=orthogonalEdgeStyle;rounded=0;orthogonalLoop=1;jettySize=auto;html=1;exitX=0;exitY=0.5;exitDx=0;exitDy=0;entryX=0.999;entryY=0.459;entryDx=0;entryDy=0;entryPerimeter=0;" parent="1" source="xzZsynwT2GMZLObQLCWg-29" target="xzZsynwT2GMZLObQLCWg-22" edge="1">
          <mxGeometry relative="1" as="geometry">
            <mxPoint x="425" y="540" as="sourcePoint" />
            <mxPoint x="570" y="860" as="targetPoint" />
            <Array as="points">
              <mxPoint x="630" y="864" />
              <mxPoint x="540" y="864" />
            </Array>
          </mxGeometry>
        </mxCell>
        <mxCell id="xzZsynwT2GMZLObQLCWg-16" value="SudokuBoard" style="swimlane;fontStyle=0;childLayout=stackLayout;horizontal=1;startSize=30;horizontalStack=0;resizeParent=1;resizeParentMax=0;resizeLast=0;collapsible=1;marginBottom=0;whiteSpace=wrap;html=1;align=center;verticalAlign=top;" parent="1" vertex="1">
          <mxGeometry x="290" y="680" width="250" height="360" as="geometry">
            <mxRectangle x="60" y="100" width="60" height="30" as="alternateBounds" />
          </mxGeometry>
        </mxCell>
        <mxCell id="xzZsynwT2GMZLObQLCWg-17" value="- cells: Cell[9][9]  " style="text;strokeColor=default;fillColor=none;align=left;verticalAlign=middle;spacingLeft=4;spacingRight=4;overflow=hidden;points=[[0,0.5],[1,0.5]];portConstraint=eastwest;rotatable=0;whiteSpace=wrap;html=1;" parent="xzZsynwT2GMZLObQLCWg-16" vertex="1">
          <mxGeometry y="30" width="250" height="30" as="geometry" />
        </mxCell>
        <mxCell id="xzZsynwT2GMZLObQLCWg-18" value="+ setValue(row: int, col: int, val: int): void " style="text;strokeColor=none;fillColor=none;align=left;verticalAlign=middle;spacingLeft=4;spacingRight=4;overflow=hidden;points=[[0,0.5],[1,0.5]];portConstraint=eastwest;rotatable=0;whiteSpace=wrap;html=1;" parent="xzZsynwT2GMZLObQLCWg-16" vertex="1">
          <mxGeometry y="60" width="250" height="30" as="geometry" />
        </mxCell>
        <mxCell id="xzZsynwT2GMZLObQLCWg-19" value="+ getValue(row: int, col: int): int" style="text;strokeColor=none;fillColor=none;align=left;verticalAlign=middle;spacingLeft=4;spacingRight=4;overflow=hidden;points=[[0,0.5],[1,0.5]];portConstraint=eastwest;rotatable=0;whiteSpace=wrap;html=1;" parent="xzZsynwT2GMZLObQLCWg-16" vertex="1">
          <mxGeometry y="90" width="250" height="30" as="geometry" />
        </mxCell>
        <mxCell id="xzZsynwT2GMZLObQLCWg-20" value="+ setFixed(row: int, col: int, fix: bool): void" style="text;strokeColor=none;fillColor=none;align=left;verticalAlign=middle;spacingLeft=4;spacingRight=4;overflow=hidden;points=[[0,0.5],[1,0.5]];portConstraint=eastwest;rotatable=0;whiteSpace=wrap;html=1;" parent="xzZsynwT2GMZLObQLCWg-16" vertex="1">
          <mxGeometry y="120" width="250" height="30" as="geometry" />
        </mxCell>
        <mxCell id="xzZsynwT2GMZLObQLCWg-21" value="+ isFixed(row: int, col: int): bool" style="text;strokeColor=none;fillColor=none;align=left;verticalAlign=middle;spacingLeft=4;spacingRight=4;overflow=hidden;points=[[0,0.5],[1,0.5]];portConstraint=eastwest;rotatable=0;whiteSpace=wrap;html=1;" parent="xzZsynwT2GMZLObQLCWg-16" vertex="1">
          <mxGeometry y="150" width="250" height="30" as="geometry" />
        </mxCell>
        <mxCell id="xzZsynwT2GMZLObQLCWg-22" value="+ isValid(row: int, col: int, num: int): bool" style="text;strokeColor=none;fillColor=none;align=left;verticalAlign=middle;spacingLeft=4;spacingRight=4;overflow=hidden;points=[[0,0.5],[1,0.5]];portConstraint=eastwest;rotatable=0;whiteSpace=wrap;html=1;" parent="xzZsynwT2GMZLObQLCWg-16" vertex="1">
          <mxGeometry y="180" width="250" height="30" as="geometry" />
        </mxCell>
        <mxCell id="bWnCQw81uDB-CjE1z5YF-3" value="+ solve(): bool" style="text;strokeColor=none;fillColor=none;align=left;verticalAlign=middle;spacingLeft=4;spacingRight=4;overflow=hidden;points=[[0,0.5],[1,0.5]];portConstraint=eastwest;rotatable=0;whiteSpace=wrap;html=1;" parent="xzZsynwT2GMZLObQLCWg-16" vertex="1">
          <mxGeometry y="210" width="250" height="30" as="geometry" />
        </mxCell>
        <mxCell id="bWnCQw81uDB-CjE1z5YF-4" value="+ generate(): void" style="text;strokeColor=none;fillColor=none;align=left;verticalAlign=middle;spacingLeft=4;spacingRight=4;overflow=hidden;points=[[0,0.5],[1,0.5]];portConstraint=eastwest;rotatable=0;whiteSpace=wrap;html=1;" parent="xzZsynwT2GMZLObQLCWg-16" vertex="1">
          <mxGeometry y="240" width="250" height="30" as="geometry" />
        </mxCell>
        <mxCell id="bWnCQw81uDB-CjE1z5YF-5" value="+ isFull(): bool" style="text;strokeColor=none;fillColor=none;align=left;verticalAlign=middle;spacingLeft=4;spacingRight=4;overflow=hidden;points=[[0,0.5],[1,0.5]];portConstraint=eastwest;rotatable=0;whiteSpace=wrap;html=1;" parent="xzZsynwT2GMZLObQLCWg-16" vertex="1">
          <mxGeometry y="270" width="250" height="30" as="geometry" />
        </mxCell>
        <mxCell id="bWnCQw81uDB-CjE1z5YF-6" value="+ reset(): void" style="text;strokeColor=none;fillColor=none;align=left;verticalAlign=middle;spacingLeft=4;spacingRight=4;overflow=hidden;points=[[0,0.5],[1,0.5]];portConstraint=eastwest;rotatable=0;whiteSpace=wrap;html=1;" parent="xzZsynwT2GMZLObQLCWg-16" vertex="1">
          <mxGeometry y="300" width="250" height="30" as="geometry" />
        </mxCell>
        <mxCell id="bWnCQw81uDB-CjE1z5YF-7" value="+ getBoard(): const std::vector&amp;lt;std::vector&amp;lt;Cell&amp;gt;&amp;gt;&amp;amp;" style="text;strokeColor=none;fillColor=none;align=left;verticalAlign=middle;spacingLeft=4;spacingRight=4;overflow=hidden;points=[[0,0.5],[1,0.5]];portConstraint=eastwest;rotatable=0;whiteSpace=wrap;html=1;" parent="xzZsynwT2GMZLObQLCWg-16" vertex="1">
          <mxGeometry y="330" width="250" height="30" as="geometry" />
        </mxCell>
        <mxCell id="xzZsynwT2GMZLObQLCWg-27" value="Cell" style="swimlane;fontStyle=0;childLayout=stackLayout;horizontal=1;startSize=30;horizontalStack=0;resizeParent=1;resizeParentMax=0;resizeLast=0;collapsible=1;marginBottom=0;whiteSpace=wrap;html=1;align=center;verticalAlign=top;strokeColor=default;" parent="1" vertex="1">
          <mxGeometry x="660" y="520" width="160" height="210" as="geometry">
            <mxRectangle x="60" y="100" width="60" height="30" as="alternateBounds" />
          </mxGeometry>
        </mxCell>
        <mxCell id="xzZsynwT2GMZLObQLCWg-28" value="- value: int&lt;div&gt;&lt;br&gt;&lt;div&gt;- fixed: bool&lt;/div&gt;&lt;/div&gt;" style="text;strokeColor=default;fillColor=none;align=left;verticalAlign=middle;spacingLeft=4;spacingRight=4;overflow=hidden;points=[[0,0.5],[1,0.5]];portConstraint=eastwest;rotatable=0;whiteSpace=wrap;html=1;" parent="xzZsynwT2GMZLObQLCWg-27" vertex="1">
          <mxGeometry y="30" width="160" height="60" as="geometry" />
        </mxCell>
        <mxCell id="xzZsynwT2GMZLObQLCWg-29" value="+ getValue(): int" style="text;strokeColor=none;fillColor=none;align=left;verticalAlign=middle;spacingLeft=4;spacingRight=4;overflow=hidden;points=[[0,0.5],[1,0.5]];portConstraint=eastwest;rotatable=0;whiteSpace=wrap;html=1;perimeterSpacing=0;" parent="xzZsynwT2GMZLObQLCWg-27" vertex="1">
          <mxGeometry y="90" width="160" height="30" as="geometry" />
        </mxCell>
        <mxCell id="xzZsynwT2GMZLObQLCWg-30" value="+ setValue(value: int): void" style="text;strokeColor=none;fillColor=none;align=left;verticalAlign=middle;spacingLeft=4;spacingRight=4;overflow=hidden;points=[[0,0.5],[1,0.5]];portConstraint=eastwest;rotatable=0;whiteSpace=wrap;html=1;" parent="xzZsynwT2GMZLObQLCWg-27" vertex="1">
          <mxGeometry y="120" width="160" height="30" as="geometry" />
        </mxCell>
        <mxCell id="xzZsynwT2GMZLObQLCWg-31" value="+ isFixed(): bool" style="text;strokeColor=none;fillColor=none;align=left;verticalAlign=middle;spacingLeft=4;spacingRight=4;overflow=hidden;points=[[0,0.5],[1,0.5]];portConstraint=eastwest;rotatable=0;whiteSpace=wrap;html=1;" parent="xzZsynwT2GMZLObQLCWg-27" vertex="1">
          <mxGeometry y="150" width="160" height="30" as="geometry" />
        </mxCell>
        <mxCell id="xzZsynwT2GMZLObQLCWg-32" value="+ setFixed(fixed: bool): bool" style="text;strokeColor=none;fillColor=none;align=left;verticalAlign=middle;spacingLeft=4;spacingRight=4;overflow=hidden;points=[[0,0.5],[1,0.5]];portConstraint=eastwest;rotatable=0;whiteSpace=wrap;html=1;" parent="xzZsynwT2GMZLObQLCWg-27" vertex="1">
          <mxGeometry y="180" width="160" height="30" as="geometry" />
        </mxCell>
        <mxCell id="9MwdnJEaXtck9jZUWyWN-26" style="edgeStyle=orthogonalEdgeStyle;rounded=0;orthogonalLoop=1;jettySize=auto;html=1;entryX=0.5;entryY=0;entryDx=0;entryDy=0;" edge="1" parent="1" source="bWnCQw81uDB-CjE1z5YF-8" target="xzZsynwT2GMZLObQLCWg-1">
          <mxGeometry relative="1" as="geometry" />
        </mxCell>
        <mxCell id="bWnCQw81uDB-CjE1z5YF-8" value="Player" style="swimlane;fontStyle=0;childLayout=stackLayout;horizontal=1;startSize=30;horizontalStack=0;resizeParent=1;resizeParentMax=0;resizeLast=0;collapsible=1;marginBottom=0;whiteSpace=wrap;html=1;align=center;verticalAlign=top;strokeColor=default;" parent="1" vertex="1">
          <mxGeometry x="335" y="200" width="160" height="120" as="geometry">
            <mxRectangle x="60" y="100" width="60" height="30" as="alternateBounds" />
          </mxGeometry>
        </mxCell>
        <mxCell id="bWnCQw81uDB-CjE1z5YF-10" value="+ makeMove(): int" style="text;strokeColor=none;fillColor=none;align=left;verticalAlign=middle;spacingLeft=4;spacingRight=4;overflow=hidden;points=[[0,0.5],[1,0.5]];portConstraint=eastwest;rotatable=0;whiteSpace=wrap;html=1;perimeterSpacing=0;" parent="bWnCQw81uDB-CjE1z5YF-8" vertex="1">
          <mxGeometry y="30" width="160" height="30" as="geometry" />
        </mxCell>
        <mxCell id="bWnCQw81uDB-CjE1z5YF-11" value="+ removeNumber(): int" style="text;strokeColor=none;fillColor=none;align=left;verticalAlign=middle;spacingLeft=4;spacingRight=4;overflow=hidden;points=[[0,0.5],[1,0.5]];portConstraint=eastwest;rotatable=0;whiteSpace=wrap;html=1;" parent="bWnCQw81uDB-CjE1z5YF-8" vertex="1">
          <mxGeometry y="60" width="160" height="30" as="geometry" />
        </mxCell>
        <mxCell id="9MwdnJEaXtck9jZUWyWN-21" value="+ username(): varchar" style="text;strokeColor=none;fillColor=none;align=left;verticalAlign=middle;spacingLeft=4;spacingRight=4;overflow=hidden;points=[[0,0.5],[1,0.5]];portConstraint=eastwest;rotatable=0;whiteSpace=wrap;html=1;" vertex="1" parent="bWnCQw81uDB-CjE1z5YF-8">
          <mxGeometry y="90" width="160" height="30" as="geometry" />
        </mxCell>
        <mxCell id="9MwdnJEaXtck9jZUWyWN-2" value="Difficulty" style="swimlane;fontStyle=0;childLayout=stackLayout;horizontal=1;startSize=30;horizontalStack=0;resizeParent=1;resizeParentMax=0;resizeLast=0;collapsible=1;marginBottom=0;whiteSpace=wrap;html=1;align=center;verticalAlign=top;strokeColor=default;" vertex="1" parent="1">
          <mxGeometry x="70" y="790" width="180" height="140" as="geometry">
            <mxRectangle x="60" y="100" width="60" height="30" as="alternateBounds" />
          </mxGeometry>
        </mxCell>
        <mxCell id="9MwdnJEaXtck9jZUWyWN-3" value="- loadTemplateFromFile (filename): static&lt;div&gt;&lt;br&gt;&lt;div&gt;- randomizePuzzle(puzzle): static&lt;/div&gt;&lt;/div&gt;" style="text;strokeColor=default;fillColor=none;align=left;verticalAlign=middle;spacingLeft=4;spacingRight=4;overflow=hidden;points=[[0,0.5],[1,0.5]];portConstraint=eastwest;rotatable=0;whiteSpace=wrap;html=1;" vertex="1" parent="9MwdnJEaXtck9jZUWyWN-2">
          <mxGeometry y="30" width="180" height="80" as="geometry" />
        </mxCell>
        <mxCell id="9MwdnJEaXtck9jZUWyWN-4" value="+ loadTemplate (Difficulty): static" style="text;strokeColor=none;fillColor=none;align=left;verticalAlign=middle;spacingLeft=4;spacingRight=4;overflow=hidden;points=[[0,0.5],[1,0.5]];portConstraint=eastwest;rotatable=0;whiteSpace=wrap;html=1;perimeterSpacing=0;" vertex="1" parent="9MwdnJEaXtck9jZUWyWN-2">
          <mxGeometry y="110" width="180" height="30" as="geometry" />
        </mxCell>
        <mxCell id="9MwdnJEaXtck9jZUWyWN-8" style="edgeStyle=orthogonalEdgeStyle;rounded=0;orthogonalLoop=1;jettySize=auto;html=1;exitX=0.998;exitY=0.044;exitDx=0;exitDy=0;exitPerimeter=0;entryX=0;entryY=0.996;entryDx=0;entryDy=0;entryPerimeter=0;" edge="1" parent="1" source="9MwdnJEaXtck9jZUWyWN-4" target="xzZsynwT2GMZLObQLCWg-21">
          <mxGeometry relative="1" as="geometry">
            <mxPoint x="270" y="850" as="targetPoint" />
            <Array as="points">
              <mxPoint x="250" y="860" />
              <mxPoint x="288" y="860" />
            </Array>
          </mxGeometry>
        </mxCell>
        <mxCell id="9MwdnJEaXtck9jZUWyWN-55" style="edgeStyle=orthogonalEdgeStyle;rounded=0;orthogonalLoop=1;jettySize=auto;html=1;entryX=0;entryY=0.5;entryDx=0;entryDy=0;" edge="1" parent="1" source="9MwdnJEaXtck9jZUWyWN-9" target="9MwdnJEaXtck9jZUWyWN-3">
          <mxGeometry relative="1" as="geometry">
            <Array as="points">
              <mxPoint x="30" y="760" />
              <mxPoint x="30" y="860" />
            </Array>
          </mxGeometry>
        </mxCell>
        <mxCell id="9MwdnJEaXtck9jZUWyWN-9" value="Easy" style="swimlane;fontStyle=0;childLayout=stackLayout;horizontal=1;startSize=30;horizontalStack=0;resizeParent=1;resizeParentMax=0;resizeLast=0;collapsible=1;marginBottom=0;whiteSpace=wrap;html=1;align=center;verticalAlign=top;strokeColor=default;" vertex="1" parent="1">
          <mxGeometry x="-190" y="730" width="160" height="60" as="geometry">
            <mxRectangle x="60" y="100" width="60" height="30" as="alternateBounds" />
          </mxGeometry>
        </mxCell>
        <mxCell id="9MwdnJEaXtck9jZUWyWN-57" style="edgeStyle=orthogonalEdgeStyle;rounded=0;orthogonalLoop=1;jettySize=auto;html=1;entryX=0;entryY=0.5;entryDx=0;entryDy=0;" edge="1" parent="1" source="9MwdnJEaXtck9jZUWyWN-16" target="9MwdnJEaXtck9jZUWyWN-3">
          <mxGeometry relative="1" as="geometry" />
        </mxCell>
        <mxCell id="9MwdnJEaXtck9jZUWyWN-16" value="Medium" style="swimlane;fontStyle=0;childLayout=stackLayout;horizontal=1;startSize=30;horizontalStack=0;resizeParent=1;resizeParentMax=0;resizeLast=0;collapsible=1;marginBottom=0;whiteSpace=wrap;html=1;align=center;verticalAlign=top;strokeColor=default;" vertex="1" parent="1">
          <mxGeometry x="-190" y="830" width="160" height="60" as="geometry">
            <mxRectangle x="60" y="100" width="60" height="30" as="alternateBounds" />
          </mxGeometry>
        </mxCell>
        <mxCell id="9MwdnJEaXtck9jZUWyWN-58" style="edgeStyle=orthogonalEdgeStyle;rounded=0;orthogonalLoop=1;jettySize=auto;html=1;entryX=0;entryY=0.5;entryDx=0;entryDy=0;" edge="1" parent="1" source="9MwdnJEaXtck9jZUWyWN-18" target="9MwdnJEaXtck9jZUWyWN-3">
          <mxGeometry relative="1" as="geometry">
            <Array as="points">
              <mxPoint x="30" y="960" />
              <mxPoint x="30" y="860" />
            </Array>
          </mxGeometry>
        </mxCell>
        <mxCell id="9MwdnJEaXtck9jZUWyWN-18" value="Hard" style="swimlane;fontStyle=0;childLayout=stackLayout;horizontal=1;startSize=30;horizontalStack=0;resizeParent=1;resizeParentMax=0;resizeLast=0;collapsible=1;marginBottom=0;whiteSpace=wrap;html=1;align=center;verticalAlign=top;strokeColor=default;" vertex="1" parent="1">
          <mxGeometry x="-190" y="930" width="160" height="60" as="geometry">
            <mxRectangle x="60" y="100" width="60" height="30" as="alternateBounds" />
          </mxGeometry>
        </mxCell>
        <mxCell id="9MwdnJEaXtck9jZUWyWN-34" value="Command" style="swimlane;fontStyle=0;childLayout=stackLayout;horizontal=1;startSize=30;horizontalStack=0;resizeParent=1;resizeParentMax=0;resizeLast=0;collapsible=1;marginBottom=0;whiteSpace=wrap;html=1;align=center;verticalAlign=top;strokeColor=default;" vertex="1" parent="1">
          <mxGeometry x="660" y="895" width="100" height="90" as="geometry">
            <mxRectangle x="60" y="100" width="60" height="30" as="alternateBounds" />
          </mxGeometry>
        </mxCell>
        <mxCell id="9MwdnJEaXtck9jZUWyWN-36" value="+ execute(): void" style="text;strokeColor=none;fillColor=none;align=left;verticalAlign=middle;spacingLeft=4;spacingRight=4;overflow=hidden;points=[[0,0.5],[1,0.5]];portConstraint=eastwest;rotatable=0;whiteSpace=wrap;html=1;perimeterSpacing=0;" vertex="1" parent="9MwdnJEaXtck9jZUWyWN-34">
          <mxGeometry y="30" width="100" height="30" as="geometry" />
        </mxCell>
        <mxCell id="9MwdnJEaXtck9jZUWyWN-37" value="+ undo(): void" style="text;strokeColor=none;fillColor=none;align=left;verticalAlign=middle;spacingLeft=4;spacingRight=4;overflow=hidden;points=[[0,0.5],[1,0.5]];portConstraint=eastwest;rotatable=0;whiteSpace=wrap;html=1;" vertex="1" parent="9MwdnJEaXtck9jZUWyWN-34">
          <mxGeometry y="60" width="100" height="30" as="geometry" />
        </mxCell>
        <mxCell id="9MwdnJEaXtck9jZUWyWN-38" style="edgeStyle=orthogonalEdgeStyle;rounded=0;orthogonalLoop=1;jettySize=auto;html=1;entryX=1;entryY=0.133;entryDx=0;entryDy=0;entryPerimeter=0;" edge="1" parent="1" source="9MwdnJEaXtck9jZUWyWN-34" target="xzZsynwT2GMZLObQLCWg-22">
          <mxGeometry relative="1" as="geometry">
            <Array as="points">
              <mxPoint x="630" y="1010" />
              <mxPoint x="630" y="904" />
            </Array>
          </mxGeometry>
        </mxCell>
        <mxCell id="9MwdnJEaXtck9jZUWyWN-42" value="InsertNumberCommand" style="swimlane;fontStyle=0;childLayout=stackLayout;horizontal=1;startSize=30;horizontalStack=0;resizeParent=1;resizeParentMax=0;resizeLast=0;collapsible=1;marginBottom=0;whiteSpace=wrap;html=1;align=center;verticalAlign=top;strokeColor=default;" vertex="1" parent="1">
          <mxGeometry x="930" y="580" width="410" height="230" as="geometry">
            <mxRectangle x="60" y="100" width="60" height="30" as="alternateBounds" />
          </mxGeometry>
        </mxCell>
        <mxCell id="9MwdnJEaXtck9jZUWyWN-43" value="- board: SudokuBoard&amp;amp;&lt;div&gt;&lt;br&gt;&lt;div&gt;- row: int&lt;br&gt;&lt;/div&gt;&lt;div&gt;&lt;br&gt;&lt;/div&gt;&lt;div&gt;- col: int&lt;br&gt;&lt;/div&gt;&lt;div&gt;&lt;br&gt;&lt;/div&gt;&lt;div&gt;- prevValue: int&lt;br&gt;&lt;/div&gt;&lt;/div&gt;" style="text;strokeColor=default;fillColor=none;align=left;verticalAlign=middle;spacingLeft=4;spacingRight=4;overflow=hidden;points=[[0,0.5],[1,0.5]];portConstraint=eastwest;rotatable=0;whiteSpace=wrap;html=1;" vertex="1" parent="9MwdnJEaXtck9jZUWyWN-42">
          <mxGeometry y="30" width="410" height="110" as="geometry" />
        </mxCell>
        <mxCell id="9MwdnJEaXtck9jZUWyWN-44" value="+ InsertNumberCommand(board: SudokuBoard&amp;amp;, row: int, col: int, num: int)" style="text;strokeColor=none;fillColor=none;align=left;verticalAlign=middle;spacingLeft=4;spacingRight=4;overflow=hidden;points=[[0,0.5],[1,0.5]];portConstraint=eastwest;rotatable=0;whiteSpace=wrap;html=1;perimeterSpacing=0;" vertex="1" parent="9MwdnJEaXtck9jZUWyWN-42">
          <mxGeometry y="140" width="410" height="30" as="geometry" />
        </mxCell>
        <mxCell id="9MwdnJEaXtck9jZUWyWN-45" value="+ execute(): void" style="text;strokeColor=none;fillColor=none;align=left;verticalAlign=middle;spacingLeft=4;spacingRight=4;overflow=hidden;points=[[0,0.5],[1,0.5]];portConstraint=eastwest;rotatable=0;whiteSpace=wrap;html=1;" vertex="1" parent="9MwdnJEaXtck9jZUWyWN-42">
          <mxGeometry y="170" width="410" height="30" as="geometry" />
        </mxCell>
        <mxCell id="9MwdnJEaXtck9jZUWyWN-46" value="+ undo(): void" style="text;strokeColor=none;fillColor=none;align=left;verticalAlign=middle;spacingLeft=4;spacingRight=4;overflow=hidden;points=[[0,0.5],[1,0.5]];portConstraint=eastwest;rotatable=0;whiteSpace=wrap;html=1;" vertex="1" parent="9MwdnJEaXtck9jZUWyWN-42">
          <mxGeometry y="200" width="410" height="30" as="geometry" />
        </mxCell>
        <mxCell id="9MwdnJEaXtck9jZUWyWN-48" style="edgeStyle=orthogonalEdgeStyle;rounded=0;orthogonalLoop=1;jettySize=auto;html=1;entryX=1.04;entryY=0.9;entryDx=0;entryDy=0;entryPerimeter=0;" edge="1" parent="1" source="9MwdnJEaXtck9jZUWyWN-42" target="9MwdnJEaXtck9jZUWyWN-36">
          <mxGeometry relative="1" as="geometry">
            <Array as="points">
              <mxPoint x="860" y="700" />
              <mxPoint x="860" y="952" />
            </Array>
          </mxGeometry>
        </mxCell>
        <mxCell id="9MwdnJEaXtck9jZUWyWN-49" value="RemoveNumberCommand" style="swimlane;fontStyle=0;childLayout=stackLayout;horizontal=1;startSize=30;horizontalStack=0;resizeParent=1;resizeParentMax=0;resizeLast=0;collapsible=1;marginBottom=0;whiteSpace=wrap;html=1;align=center;verticalAlign=top;strokeColor=default;" vertex="1" parent="1">
          <mxGeometry x="930" y="845" width="410" height="230" as="geometry">
            <mxRectangle x="60" y="100" width="60" height="30" as="alternateBounds" />
          </mxGeometry>
        </mxCell>
        <mxCell id="9MwdnJEaXtck9jZUWyWN-50" value="- board: SudokuBoard&amp;amp;&lt;div&gt;&lt;br&gt;&lt;div&gt;- row: int&lt;br&gt;&lt;/div&gt;&lt;div&gt;&lt;br&gt;&lt;/div&gt;&lt;div&gt;- col: int&lt;br&gt;&lt;/div&gt;&lt;div&gt;&lt;br&gt;&lt;/div&gt;&lt;div&gt;- prevValue: int&lt;br&gt;&lt;/div&gt;&lt;/div&gt;" style="text;strokeColor=default;fillColor=none;align=left;verticalAlign=middle;spacingLeft=4;spacingRight=4;overflow=hidden;points=[[0,0.5],[1,0.5]];portConstraint=eastwest;rotatable=0;whiteSpace=wrap;html=1;" vertex="1" parent="9MwdnJEaXtck9jZUWyWN-49">
          <mxGeometry y="30" width="410" height="110" as="geometry" />
        </mxCell>
        <mxCell id="9MwdnJEaXtck9jZUWyWN-51" value="+ RemoveNumberCommand(board: SudokuBoard&amp;amp;, row: int, col: int, num: int)" style="text;strokeColor=none;fillColor=none;align=left;verticalAlign=middle;spacingLeft=4;spacingRight=4;overflow=hidden;points=[[0,0.5],[1,0.5]];portConstraint=eastwest;rotatable=0;whiteSpace=wrap;html=1;perimeterSpacing=0;" vertex="1" parent="9MwdnJEaXtck9jZUWyWN-49">
          <mxGeometry y="140" width="410" height="30" as="geometry" />
        </mxCell>
        <mxCell id="9MwdnJEaXtck9jZUWyWN-52" value="+ execute(): void" style="text;strokeColor=none;fillColor=none;align=left;verticalAlign=middle;spacingLeft=4;spacingRight=4;overflow=hidden;points=[[0,0.5],[1,0.5]];portConstraint=eastwest;rotatable=0;whiteSpace=wrap;html=1;" vertex="1" parent="9MwdnJEaXtck9jZUWyWN-49">
          <mxGeometry y="170" width="410" height="30" as="geometry" />
        </mxCell>
        <mxCell id="9MwdnJEaXtck9jZUWyWN-53" value="+ undo(): void" style="text;strokeColor=none;fillColor=none;align=left;verticalAlign=middle;spacingLeft=4;spacingRight=4;overflow=hidden;points=[[0,0.5],[1,0.5]];portConstraint=eastwest;rotatable=0;whiteSpace=wrap;html=1;" vertex="1" parent="9MwdnJEaXtck9jZUWyWN-49">
          <mxGeometry y="200" width="410" height="30" as="geometry" />
        </mxCell>
        <mxCell id="9MwdnJEaXtck9jZUWyWN-54" style="edgeStyle=orthogonalEdgeStyle;rounded=0;orthogonalLoop=1;jettySize=auto;html=1;entryX=1.05;entryY=-0.133;entryDx=0;entryDy=0;entryPerimeter=0;" edge="1" parent="1" source="9MwdnJEaXtck9jZUWyWN-49" target="9MwdnJEaXtck9jZUWyWN-37">
          <mxGeometry relative="1" as="geometry">
            <Array as="points">
              <mxPoint x="848" y="950" />
            </Array>
          </mxGeometry>
        </mxCell>
      </root>
    </mxGraphModel>
  </diagram>
</mxfile>
